HIERARCHY
ROOT Hips
{
	OFFSET 2.433734 86.173073 3.643662
	CHANNELS 6 Xposition Yposition Zposition Zrotation Yrotation Xrotation 
	JOINT Spine
	{
		OFFSET -0.000000 8.814246 -2.080107
		CHANNELS 3 Zrotation Yrotation Xrotation
		JOINT Spine1
		{
			OFFSET 0.000000 8.844141 0.000000
			CHANNELS 3 Zrotation Yrotation Xrotation
			JOINT Spine2
			{
				OFFSET 0.000000 11.682268 -0.000000
				CHANNELS 3 Zrotation Yrotation Xrotation
				JOINT Spine3
				{
					OFFSET -0.000000 11.746700 -0.000000
					CHANNELS 3 Zrotation Yrotation Xrotation
					JOINT Neck
					{
						OFFSET -0.000000 17.658264 0.000000
						CHANNELS 3 Zrotation Yrotation Xrotation
						JOINT Neck1
						{
							OFFSET -0.000000 5.101515 -0.000000
							CHANNELS 3 Zrotation Yrotation Xrotation
							JOINT Head
							{
								OFFSET 0.000000 5.101515 -0.000000
								CHANNELS 3 Zrotation Yrotation Xrotation
								JOINT HeadEnd
								{
									OFFSET -0.000000 11.655085 -0.000000
									CHANNELS 3 Zrotation Yrotation Xrotation
									End Site
									{
										OFFSET 0.000000 0.000000 0.000000
									}
								}
							}
						}
					}
					JOINT RightShoulder
					{
						OFFSET -2.625389 11.175210 -0.000000
						CHANNELS 3 Zrotation Yrotation Xrotation
						JOINT RightArm
						{
							OFFSET -0.000000 10.434715 0.000000
							CHANNELS 3 Zrotation Yrotation Xrotation
							JOINT RightForeArm
							{
								OFFSET 0.000000 29.628420 -0.000000
								CHANNELS 3 Zrotation Yrotation Xrotation
								JOINT RightHand
								{
									OFFSET 0.000000 22.857611 0.000000
									CHANNELS 3 Zrotation Yrotation Xrotation
									JOINT RightHandThumb1
									{
										OFFSET -2.867323 3.959563 2.944291
										CHANNELS 3 Zrotation Yrotation Xrotation
										JOINT RightHandThumb2
										{
											OFFSET 0.000000 3.350399 0.000000
											CHANNELS 3 Zrotation Yrotation Xrotation
											JOINT RightHandThumb3
											{
												OFFSET -0.000000 3.756509 -0.000000
												CHANNELS 3 Zrotation Yrotation Xrotation
												JOINT RightHandThumb4
												{
													OFFSET -0.000000 3.147345 -0.000000
													CHANNELS 3 Zrotation Yrotation Xrotation
													End Site
													{
														OFFSET 0.000000 0.000000 0.000000
													}
												}
											}
										}
									}
									JOINT RightHandIndex1
									{
										OFFSET -0.086752 10.030893 2.345280
										CHANNELS 3 Zrotation Yrotation Xrotation
										JOINT RightHandIndex2
										{
											OFFSET -0.000000 4.061090 0.000000
											CHANNELS 3 Zrotation Yrotation Xrotation
											JOINT RightHandIndex3
											{
												OFFSET 0.000000 3.248873 0.000000
												CHANNELS 3 Zrotation Yrotation Xrotation
												JOINT RightHandIndex4
												{
													OFFSET 0.000000 2.639709 0.000000
													CHANNELS 3 Zrotation Yrotation Xrotation
													End Site
													{
														OFFSET 0.000000 0.000000 0.000000
													}
												}
											}
										}
									}
									JOINT RightHandMiddle1
									{
										OFFSET 0.104102 9.502952 0.006768
										CHANNELS 3 Zrotation Yrotation Xrotation
										JOINT RightHandMiddle2
										{
											OFFSET -0.000000 4.568727 -0.000000
											CHANNELS 3 Zrotation Yrotation Xrotation
											JOINT RightHandMiddle3
											{
												OFFSET -0.000000 3.654981 0.000000
												CHANNELS 3 Zrotation Yrotation Xrotation
												JOINT RightHandMiddle4
												{
													OFFSET 0.000000 2.741236 0.000000
													CHANNELS 3 Zrotation Yrotation Xrotation
													End Site
													{
														OFFSET 0.000000 0.000000 0.000000
													}
												}
											}
										}
									}
									JOINT RightHandRing1
									{
										OFFSET 0.086752 8.921708 -2.267442
										CHANNELS 3 Zrotation Yrotation Xrotation
										JOINT RightHandRing2
										{
											OFFSET -0.000000 4.061090 -0.000000
											CHANNELS 3 Zrotation Yrotation Xrotation
											JOINT RightHandRing3
											{
												OFFSET 0.000000 3.654981 0.000000
												CHANNELS 3 Zrotation Yrotation Xrotation
												JOINT RightHandRing4
												{
													OFFSET -0.000000 2.741236 -0.000000
													CHANNELS 3 Zrotation Yrotation Xrotation
													End Site
													{
														OFFSET 0.000000 0.000000 0.000000
													}
												}
											}
										}
									}
									JOINT RightHandPinky1
									{
										OFFSET -0.173504 7.976997 -4.467199
										CHANNELS 3 Zrotation Yrotation Xrotation
										JOINT RightHandPinky2
										{
											OFFSET 0.000000 3.350399 0.000000
											CHANNELS 3 Zrotation Yrotation Xrotation
											JOINT RightHandPinky3
											{
												OFFSET 0.000000 2.842763 0.000000
												CHANNELS 3 Zrotation Yrotation Xrotation
												JOINT RightHandPinky4
												{
													OFFSET 0.000000 2.639709 0.000000
													CHANNELS 3 Zrotation Yrotation Xrotation
													End Site
													{
														OFFSET 0.000000 0.000000 0.000000
													}
												}
											}
										}
									}
									JOINT RightForeArmEnd
									{
										OFFSET 0.000000 0.000000 0.000000
										CHANNELS 3 Zrotation Yrotation Xrotation
										End Site
										{
											OFFSET 0.000000 0.000000 0.000000
										}
									}
								}
								JOINT RightArmEnd
								{
									OFFSET 0.000000 0.000000 0.000000
									CHANNELS 3 Zrotation Yrotation Xrotation
									End Site
									{
										OFFSET 0.000000 0.000000 0.000000
									}
								}
							}
						}
					}
					JOINT LeftShoulder
					{
						OFFSET 2.625389 11.175210 -0.000000
						CHANNELS 3 Zrotation Yrotation Xrotation
						JOINT LeftArm
						{
							OFFSET 0.000000 10.813635 0.000000
							CHANNELS 3 Zrotation Yrotation Xrotation
							JOINT LeftForeArm
							{
								OFFSET 0.000000 28.724781 0.000000
								CHANNELS 3 Zrotation Yrotation Xrotation
								JOINT LeftHand
								{
									OFFSET 0.644384 25.716167 -0.328871
									CHANNELS 3 Zrotation Yrotation Xrotation
									JOINT LeftHandThumb1
									{
										OFFSET 2.867323 3.959563 2.944291
										CHANNELS 3 Zrotation Yrotation Xrotation
										JOINT LeftHandThumb2
										{
											OFFSET 0.000000 3.350399 0.000000
											CHANNELS 3 Zrotation Yrotation Xrotation
											JOINT LeftHandThumb3
											{
												OFFSET -0.000000 3.756509 -0.000000
												CHANNELS 3 Zrotation Yrotation Xrotation
												JOINT LeftHandThumb4
												{
													OFFSET -0.000000 3.100000 0.000000
													CHANNELS 3 Zrotation Yrotation Xrotation
													End Site
													{
														OFFSET 0.000000 0.000000 0.000000
													}
												}
											}
										}
									}
									JOINT LeftHandIndex1
									{
										OFFSET 0.086752 10.030893 2.345280
										CHANNELS 3 Zrotation Yrotation Xrotation
										JOINT LeftHandIndex2
										{
											OFFSET -0.000000 4.061090 0.000000
											CHANNELS 3 Zrotation Yrotation Xrotation
											JOINT LeftHandIndex3
											{
												OFFSET 0.000000 3.248873 0.000000
												CHANNELS 3 Zrotation Yrotation Xrotation
												JOINT LeftHandIndex4
												{
													OFFSET -0.000000 2.639709 0.000000
													CHANNELS 3 Zrotation Yrotation Xrotation
													End Site
													{
														OFFSET 0.000000 0.000000 0.000000
													}
												}
											}
										}
									}
									JOINT LeftHandMiddle1
									{
										OFFSET -0.104102 9.502952 0.006768
										CHANNELS 3 Zrotation Yrotation Xrotation
										JOINT LeftHandMiddle2
										{
											OFFSET -0.000000 4.568727 0.000000
											CHANNELS 3 Zrotation Yrotation Xrotation
											JOINT LeftHandMiddle3
											{
												OFFSET 0.000000 3.654981 -0.000000
												CHANNELS 3 Zrotation Yrotation Xrotation
												JOINT LeftHandMiddle4
												{
													OFFSET -0.000000 2.741236 0.000000
													CHANNELS 3 Zrotation Yrotation Xrotation
													End Site
													{
														OFFSET 0.000000 0.000000 0.000000
													}
												}
											}
										}
									}
									JOINT LeftHandRing1
									{
										OFFSET -0.086752 8.921708 -2.267442
										CHANNELS 3 Zrotation Yrotation Xrotation
										JOINT LeftHandRing2
										{
											OFFSET -0.000000 4.061090 0.000000
											CHANNELS 3 Zrotation Yrotation Xrotation
											JOINT LeftHandRing3
											{
												OFFSET 0.000000 3.654981 0.000000
												CHANNELS 3 Zrotation Yrotation Xrotation
												JOINT LeftHandRing4
												{
													OFFSET 0.000000 2.741236 -0.000000
													CHANNELS 3 Zrotation Yrotation Xrotation
													End Site
													{
														OFFSET 0.000000 0.000000 0.000000
													}
												}
											}
										}
									}
									JOINT LeftHandPinky1
									{
										OFFSET 0.173504 7.976997 -4.467199
										CHANNELS 3 Zrotation Yrotation Xrotation
										JOINT LeftHandPinky2
										{
											OFFSET 0.000000 3.350399 -0.000000
											CHANNELS 3 Zrotation Yrotation Xrotation
											JOINT LeftHandPinky3
											{
												OFFSET -0.000000 2.842763 0.000000
												CHANNELS 3 Zrotation Yrotation Xrotation
												JOINT LeftHandPinky4
												{
													OFFSET -0.000000 2.639709 0.000000
													CHANNELS 3 Zrotation Yrotation Xrotation
													End Site
													{
														OFFSET 0.000000 0.000000 0.000000
													}
												}
											}
										}
									}
									JOINT LeftForeArmEnd
									{
										OFFSET 0.000000 0.000000 0.000000
										CHANNELS 3 Zrotation Yrotation Xrotation
										End Site
										{
											OFFSET 0.000000 0.000000 0.000000
										}
									}
								}
								JOINT LeftArmEnd
								{
									OFFSET 0.000000 0.000000 0.000000
									CHANNELS 3 Zrotation Yrotation Xrotation
									End Site
									{
										OFFSET 0.000000 0.000000 0.000000
									}
								}
							}
						}
					}
				}
			}
		}
	}
	JOINT RightUpLeg
	{
		OFFSET -11.289943 0.000000 0.000000
		CHANNELS 3 Zrotation Yrotation Xrotation
		JOINT RightLeg
		{
			OFFSET -0.000000 -38.200325 0.000000
			CHANNELS 3 Zrotation Yrotation Xrotation
			JOINT RightFoot
			{
				OFFSET -0.000000 -39.900856 -0.000000
				CHANNELS 3 Zrotation Yrotation Xrotation
				JOINT RightToeBase
				{
					OFFSET -0.000000 -0.000000 15.261641
					CHANNELS 3 Zrotation Yrotation Xrotation
					JOINT RightToeBaseEnd
					{
						OFFSET -0.000000 0.000000 7.370709
						CHANNELS 3 Zrotation Yrotation Xrotation
						End Site
						{
							OFFSET 0.000000 0.000000 0.000000
						}
					}
				}
				JOINT RightLegEnd
				{
					OFFSET 0.000000 0.000000 0.000000
					CHANNELS 3 Zrotation Yrotation Xrotation
					End Site
					{
						OFFSET 0.000000 0.000000 0.000000
					}
				}
			}
			JOINT RightUpLegEnd
			{
				OFFSET 0.000000 0.000000 0.000000
				CHANNELS 3 Zrotation Yrotation Xrotation
				End Site
				{
					OFFSET 0.000000 0.000000 0.000000
				}
			}
		}
	}
	JOINT LeftUpLeg
	{
		OFFSET 11.315661 0.000000 -0.000000
		CHANNELS 3 Zrotation Yrotation Xrotation
		JOINT LeftLeg
		{
			OFFSET -0.000000 -38.200325 -0.000000
			CHANNELS 3 Zrotation Yrotation Xrotation
			JOINT LeftFoot
			{
				OFFSET 0.000000 -39.900856 -0.000000
				CHANNELS 3 Zrotation Yrotation Xrotation
				JOINT LeftToeBase
				{
					OFFSET 0.000000 -0.000000 15.261641
					CHANNELS 3 Zrotation Yrotation Xrotation
					JOINT LeftToeBaseEnd
					{
						OFFSET 0.000000 -0.000000 7.539996
						CHANNELS 3 Zrotation Yrotation Xrotation
						End Site
						{
							OFFSET 0.000000 0.000000 0.000000
						}
					}
				}
				JOINT LeftLegEnd
				{
					OFFSET 0.000000 0.000000 0.000000
					CHANNELS 3 Zrotation Yrotation Xrotation
					End Site
					{
						OFFSET 0.000000 0.000000 0.000000
					}
				}
			}
			JOINT LeftUpLegEnd
			{
				OFFSET 0.000000 0.000000 0.000000
				CHANNELS 3 Zrotation Yrotation Xrotation
				End Site
				{
					OFFSET 0.000000 0.000000 0.000000
				}
			}
		}
	}
}
MOTION
Frames: 4
Frame Time: 0.016667
2.433734 86.173073 3.643662 4.299845 0.534881 -7.077621 -8.138910 1.415882 -0.501093 14.969744 -4.986477 10.393132 -18.977310 3.765862 1.451039 4.191943 -0.820174 -0.026746 5.330935 5.319360 10.245767 -3.058134 4.096265 -7.856699 -0.884414 2.925234 -23.483372 0.000000 0.000000 0.000000 96.794540 -0.452405 3.697086 71.595825 -34.005363 -10.252324 2.613487 16.506643 33.556507 4.896970 16.739386 -10.989886 10.039282 -1.787270 40.137463 0.000000 0.000000 -24.480000 0.000000 0.000000 -16.999998 0.000000 0.000000 0.000000 13.474064 0.000000 -9.998755 9.431845 0.000000 0.000000 9.431845 0.000000 0.000000 0.000000 0.000000 0.000000 14.310910 -0.000000 -12.117423 10.017637 0.000000 0.000000 10.017637 0.000000 0.000000 0.000000 0.000000 0.000000 16.702457 -0.000000 -13.374759 11.691720 0.000000 0.000000 11.691720 0.000000 0.000000 0.000000 0.000000 0.000000 18.303183 0.000000 -16.208984 12.812225 0.000000 0.000000 12.812225 0.000000 0.000000 0.000000 0.000000 0.000000 0.000000 0.000000 0.000000 0.000000 0.000000 0.000000 -93.419373 0.305430 3.692236 -58.119640 34.383701 -1.479928 -3.132393 -16.410662 54.021275 0.345754 -19.841892 -14.396711 -7.651653 1.517517 41.228924 0.000000 0.000000 -18.719999 0.000000 0.000000 -13.000000 0.000000 0.000000 0.000000 -7.052994 -0.000000 -11.588723 -4.937097 0.000000 0.000000 -4.937097 0.000000 0.000000 0.000000 0.000000 0.000000 -8.928932 0.000000 -13.154870 -6.250252 0.000000 0.000000 -6.250252 0.000000 0.000000 0.000000 0.000000 0.000000 -13.184094 0.000000 -12.977899 -9.228864 0.000000 0.000000 -9.228864 0.000000 0.000000 0.000000 0.000000 0.000000 -16.410326 -0.000000 -13.409651 -11.487226 0.000000 0.000000 -11.487226 0.000000 0.000000 0.000000 0.000000 0.000000 0.000000 0.000000 0.000000 0.000000 0.000000 0.000000 -16.555935 3.881752 -2.063656 -0.437959 -1.141036 20.999811 8.242569 -11.888932 17.012327 -0.798321 -0.807249 -27.538485 0.000000 0.000000 0.000000 0.000000 0.000000 0.000000 0.000000 0.000000 0.000000 -1.257158 -2.234490 1.752836 0.201865 0.647150 17.324553 2.536021 0.751004 14.193522 -0.373871 0.147749 -28.911346 0.000000 0.000000 0.000000 0.000000 0.000000 0.000000 0.000000 0.000000 0.000000 
0.882025 86.147736 3.564923 3.283825 1.261807 -9.107664 -2.926160 0.667966 5.995934 5.909329 -1.455222 3.936339 -8.602051 2.274908 8.689352 -0.750927 -0.925271 -0.536500 0.686358 6.566705 8.919922 -3.333211 3.859089 -7.038959 -0.598653 3.382177 -21.726337 0.000000 0.000000 0.000000 96.280121 -1.384368 3.530867 70.432365 -34.409328 -9.664369 1.996625 20.338383 38.033852 4.281826 17.344278 -12.975243 10.182575 -1.760981 40.120087 -0.000067 0.000023 -25.002098 0.000034 0.000046 -17.266165 -0.000002 0.000005 -0.000027 12.500903 0.743149 -10.688034 9.649343 0.004623 -0.136479 9.938077 0.058147 -0.173307 -0.000050 0.000017 0.000014 13.567674 0.302428 -11.733007 10.185178 -0.024871 -0.100364 10.129309 0.028579 -0.060477 -0.000009 0.000038 -0.000006 17.098001 -0.407512 -11.558026 11.967998 0.020425 0.123812 11.939969 -0.053156 0.104037 -0.000019 -0.000329 0.000021 19.456915 -1.140905 -13.413100 13.270761 -0.075066 0.691686 13.034609 -0.232118 0.520872 0.000356 -0.000004 0.000028 0.000000 0.000000 0.000000 0.000000 0.000000 0.000000 -92.244385 0.264921 4.381589 -55.216896 31.621656 4.206893 -2.487170 -13.984621 48.875874 -2.991580 -19.552654 -14.847033 -7.672443 1.525277 41.247116 0.000010 0.000006 -18.661093 -0.000213 -0.000034 -12.872378 -0.001131 -0.000016 0.001562 -5.835129 0.851234 -11.811462 -6.178957 -0.005715 0.112084 -6.331226 0.059610 0.085113 0.000030 0.000947 -0.000001 -7.761781 0.357513 -12.452248 -7.146649 -0.042756 0.070111 -6.842121 0.018962 0.051212 -0.000755 -0.000053 -0.000285 -12.908776 -0.416924 -11.052155 -9.880568 0.058181 -0.164680 -9.790792 -0.035202 -0.111610 0.000699 0.000011 0.000005 -16.218151 -1.106086 -10.736753 -11.854217 0.052227 -0.573457 -11.695077 -0.138459 -0.490311 0.000269 0.000014 -0.000041 0.000000 0.000000 0.000000 0.000000 0.000000 0.000000 -14.406789 2.043015 -0.562711 -0.410072 -1.217523 21.205750 7.296798 -7.962357 16.988216 -0.611682 -0.315426 -30.528582 0.000000 0.000000 0.000000 0.000000 0.000000 0.000000 0.000000 0.000000 0.000000 0.718751 -1.086984 5.496362 0.262916 0.995867 16.287100 0.477840 -0.097443 14.597660 -0.359472 -0.290521 -29.472172 0.000000 0.000000 0.000000 0.000000 0.000000 0.000000 0.000000 0.000000 0.000000 
-0.182454 86.209610 3.763242 2.809162 1.763486 -9.239371 -2.534289 0.591762 6.204751 5.943562 -1.486677 3.841554 -8.262417 2.121445 8.824347 -0.704703 -0.894136 -0.199127 1.040483 6.385928 8.511757 -3.413942 3.693277 -7.151201 -0.657297 3.389115 -21.577629 0.000000 0.000000 0.000000 96.176437 -1.438876 3.716942 69.283844 -35.228428 -8.948319 1.910689 20.127300 37.867542 4.026268 17.398788 -13.530450 10.239717 -1.774169 40.094952 -0.000046 0.000041 -25.082735 0.000023 0.000037 -17.325682 0.000011 0.000010 -0.000047 12.816216 0.658248 -10.297580 9.852549 -0.000084 -0.116713 10.157028 0.048263 -0.159502 -0.000024 0.000025 0.000002 13.719464 0.269672 -11.501859 10.339015 -0.024071 -0.092101 10.276426 0.025333 -0.056479 -0.000000 0.000002 -0.000013 16.996243 -0.364453 -11.349886 12.046874 0.015677 0.116230 12.001432 -0.049248 0.096753 -0.000026 -0.000393 0.000018 19.114191 -1.022048 -13.363479 13.282641 -0.073471 0.680031 13.057503 -0.215224 0.502029 0.000444 -0.000003 -0.000004 0.000000 0.000000 0.000000 0.000000 0.000000 0.000000 -92.286324 0.347357 4.380516 -55.889725 31.510799 3.945949 -2.471622 -14.100426 48.722828 -2.764926 -18.037130 -15.358271 -7.727524 1.531183 41.211613 -0.000006 0.000020 -18.928137 -0.000200 -0.000039 -13.043290 -0.001213 -0.000013 0.000820 -6.237504 0.768702 -11.539413 -6.457556 -0.005367 0.103348 -6.624032 0.051601 0.082112 0.000034 0.001245 -0.000006 -8.083241 0.325202 -12.237803 -7.421330 -0.039893 0.064298 -7.114644 0.017019 0.046643 -0.000571 -0.000063 -0.000313 -13.204887 -0.377399 -10.832857 -10.132324 0.054325 -0.149689 -10.089108 -0.031193 -0.100313 0.000575 0.000016 0.000007 -16.614710 -1.001219 -10.436269 -12.054023 0.054296 -0.514659 -11.929237 -0.123102 -0.452640 0.000416 0.000021 -0.000044 0.000000 0.000000 0.000000 0.000000 0.000000 0.000000 -12.950906 1.558260 0.410274 -0.384436 -1.195194 20.757053 6.502117 -8.416276 16.463539 -0.589418 -0.272663 -30.055624 0.000000 0.000000 0.000000 0.000000 0.000000 0.000000 0.000000 0.000000 0.000000 2.159685 -1.503568 5.926942 0.288458 1.089242 16.222569 -0.369374 -0.153377 14.815229 -0.226092 -0.329452 -29.484493 0.000000 0.000000 0.000000 0.000000 0.000000 0.000000 0.000000 0.000000 0.000000 
-1.183511 86.258865 3.955023 2.323654 2.377955 -9.369601 -2.156304 0.528057 6.413680 6.077770 -1.517940 3.759664 -7.965277 2.052404 9.075492 -0.631460 -0.869275 -0.010883 1.463366 6.049469 8.198365 -3.494067 3.438268 -7.278172 -0.634688 3.436300 -21.570070 0.000000 0.000000 0.000000 96.086723 -1.442821 3.788237 68.603065 -35.596539 -8.464657 1.850256 19.916655 37.437870 3.628113 17.000700 -13.705699 10.260623 -1.774976 40.097282 -0.000035 0.000044 -25.062529 0.000019 0.000036 -17.310921 0.000013 0.000010 -0.000048 13.077377 0.608655 -10.019744 10.031478 -0.000502 -0.110660 10.343475 0.044274 -0.153915 -0.000017 0.000026 -0.000005 13.831934 0.250132 -11.354324 10.465929 -0.022967 -0.088457 10.397849 0.023576 -0.054176 0.000002 0.000005 -0.000011 16.830952 -0.338379 -11.211849 12.093393 0.013779 0.115229 12.046252 -0.046576 0.095543 -0.000024 -0.000349 0.000020 18.697866 -0.950805 -13.326837 13.208633 -0.068915 0.682949 13.007069 -0.203582 0.497549 0.000552 -0.000005 -0.000022 0.000000 0.000000 0.000000 0.000000 0.000000 0.000000 -92.261490 0.410553 4.314972 -56.659580 31.644258 3.405493 -2.422392 -14.048087 48.688122 -2.393303 -16.629711 -15.606175 -7.761251 1.530368 41.197422 -0.000010 0.000024 -19.087500 -0.000186 -0.000041 -13.149342 -0.001413 -0.000015 0.000301 -6.584032 0.720191 -11.337590 -6.705717 -0.006112 0.109361 -6.887082 0.046728 0.089549 0.000033 0.001473 -0.000008 -8.351851 0.306511 -12.095490 -7.653069 -0.037610 0.063661 -7.332184 0.015785 0.046639 -0.000557 -0.000065 -0.000330 -13.361707 -0.354074 -10.706866 -10.305873 0.052459 -0.137258 -10.290131 -0.028213 -0.091895 0.000185 0.000015 0.000006 -16.775797 -0.939594 -10.290056 -12.168489 0.060883 -0.451046 -12.053224 -0.109142 -0.407639 0.000396 0.000017 -0.000042 0.000000 0.000000 0.000000 0.000000 0.000000 0.000000 -11.486704 0.921777 1.466388 -0.359299 -1.160611 20.363901 5.714293 -9.389102 15.932896 -0.575438 -0.270050 -29.692640 0.000000 0.000000 0.000000 0.000000 0.000000 0.000000 0.000000 0.000000 0.000000 3.598988 -2.007339 6.018644 0.309971 1.142345 16.562130 -1.140126 -0.408362 15.025311 -0.127889 -0.322861 -29.627323 0.000000 0.000000 0.000000 0.000000 0.000000 0.000000 0.000000 0.000000 0.000000 
